<svg width="202" height="155" viewBox="0 0 202 155" fill="none" xmlns="http://www.w3.org/2000/svg">
<path fill-rule="evenodd" clip-rule="evenodd" d="M53.21 0.698975H100.327V45.2358H53.21V0.698975ZM100.327 108.76V153.246H53.21V108.76H100.327ZM53.21 100.588V53.4171H89.29L62.7583 78.2302L89.214 100.556L53.21 100.588Z" fill="#00797C"/>
<path fill-rule="evenodd" clip-rule="evenodd" d="M0.495117 100.531V53.4139H52.6599V53.417H89.2901L62.7584 78.2301L62.7581 78.2304L86.2017 98.0139L89.1846 100.531H0.495117Z" fill="#00797C"/>
<path fill-rule="evenodd" clip-rule="evenodd" d="M74.1371 78.2302L100.327 53.3504V45.2358H53.21V53.4168H89.2903L62.7582 78.2302L89.2139 100.556L53.21 100.589V108.759C68.807 108.759 84.7298 108.759 100.327 108.759L100.33 100.556L74.1371 78.2302Z" fill="#ECECED"/>
<path fill-rule="evenodd" clip-rule="evenodd" d="M110.606 104.585H104.905V112.661H106.764L106.753 106.108H110.595L110.606 104.585ZM116.36 112.661H118.321L114.71 104.585H112.864L109.264 112.661H111.179L111.894 110.931H115.644L116.36 112.661ZM112.495 109.512L113.775 106.42L115.056 109.512H112.495ZM124.436 104.585L122.22 108.923L120.075 104.585H118.078L121.263 110.515L121.194 110.608C120.882 111.092 120.524 111.3 120.063 111.3C119.821 111.3 119.555 111.242 119.255 111.15L118.805 112.569C119.255 112.754 119.694 112.846 120.121 112.846C121.205 112.846 122.163 112.223 122.832 110.977L126.27 104.585H124.436ZM131.808 108.45C132.523 108.139 132.973 107.516 132.973 106.731C132.973 105.266 131.358 104.412 129.489 104.412C128.566 104.412 127.597 104.62 126.72 105.07L127.285 106.523C127.978 106.131 128.774 105.947 129.454 105.947C130.366 105.947 131.081 106.293 131.081 106.95C131.081 107.481 130.643 107.816 129.881 107.816H128.047V109.223H130.02C130.862 109.223 131.416 109.523 131.416 110.134C131.416 110.885 130.551 111.277 129.489 111.277C128.704 111.277 127.805 111.069 127.066 110.619L126.489 111.957C127.493 112.534 128.635 112.8 129.708 112.8C131.647 112.8 133.308 111.923 133.308 110.4C133.308 109.488 132.743 108.773 131.808 108.45ZM108.756 126.323C111.295 126.323 113.175 124.558 113.175 122.147C113.175 119.735 111.295 117.97 108.756 117.97C106.207 117.97 104.338 119.747 104.338 122.147C104.338 124.546 106.207 126.323 108.756 126.323ZM108.756 124.731C107.314 124.731 106.23 123.681 106.23 122.147C106.23 120.612 107.314 119.562 108.756 119.562C110.199 119.562 111.283 120.612 111.283 122.147C111.283 123.681 110.199 124.731 108.756 124.731ZM114.617 126.185H118.448C120.524 126.185 121.713 125.25 121.713 123.635C121.713 122.089 120.663 121.258 118.713 121.258H116.475V119.597H121.136V118.108H114.617V126.185ZM116.475 124.8V122.631H118.344C119.325 122.631 119.821 122.977 119.821 123.693C119.821 124.419 119.302 124.8 118.344 124.8H116.475ZM123.93 118.108L123.814 121.385C123.734 123.45 123.491 124.65 122.545 124.65C122.43 124.65 122.326 124.639 122.211 124.604L122.095 126.185C122.442 126.265 122.741 126.312 123.018 126.312C124.912 126.312 125.362 124.489 125.466 121.316L125.524 119.631H128.289V126.185H130.135V118.108H123.93ZM138.338 126.185H140.299L136.688 118.108H134.842L131.243 126.185H133.158L133.873 124.454H137.623L138.338 126.185ZM134.473 123.035L135.754 119.943L137.034 123.035H134.473ZM145.076 126.323C146.483 126.323 147.648 125.815 148.41 124.881L147.21 123.773C146.668 124.408 145.987 124.731 145.179 124.731C143.668 124.731 142.595 123.669 142.595 122.147C142.595 120.624 143.668 119.562 145.179 119.562C145.987 119.562 146.668 119.885 147.21 120.508L148.41 119.401C147.648 118.478 146.483 117.97 145.087 117.97C142.572 117.97 140.703 119.712 140.703 122.147C140.703 124.581 142.572 126.323 145.076 126.323ZM155.725 118.108H148.722V119.631H151.294V126.185H153.14V119.631H155.725V118.108ZM162.439 118.108V121.293H158.771V118.108H156.902V126.185H158.771V122.873H162.439V126.185H164.308V118.108H162.439ZM172.512 126.185H174.473L170.862 118.108H169.016L165.416 126.185H167.331L168.046 124.454H171.796L172.512 126.185ZM168.647 123.035L169.927 119.943L171.208 123.035H168.647ZM178.096 118.108C175.961 118.108 174.611 119.239 174.611 121.12C174.611 122.389 175.223 123.312 176.307 123.75L174.623 126.185H176.596L178.026 124.039H179.734V126.185H181.58V118.108H178.096ZM178.142 119.631H179.734V122.562H178.096C177.046 122.562 176.503 122.031 176.503 121.097C176.503 120.127 177.08 119.631 178.142 119.631ZM110.13 139.708H112.252L109.529 135.531L112.172 131.632H110.199L108.076 134.897H106.737V131.632H104.88V139.708H106.737V136.454H108.03L110.13 139.708ZM114.319 131.632L114.204 134.908C114.123 136.973 113.881 138.173 112.935 138.173C112.82 138.173 112.716 138.162 112.601 138.127L112.485 139.708C112.831 139.789 113.131 139.835 113.408 139.835C115.302 139.835 115.752 138.012 115.856 134.839L115.914 133.155H118.679V139.708H120.524V131.632H114.319ZM122.544 139.708H124.309L128.162 134.458V139.708H130.008V131.632H128.255L124.401 136.893V131.632H122.544V139.708ZM137.554 131.632V134.816H133.885V131.632H132.016V139.708H133.885V136.397H137.554V139.708H139.423V131.632H137.554ZM141.442 139.708H143.207L147.06 134.458V139.708H148.907V131.632H147.153L143.299 136.893V131.632H141.442V139.708ZM155.471 131.632V135.266C154.952 135.497 154.352 135.624 153.741 135.624C152.621 135.624 152.01 135.058 152.01 133.951V131.632H150.164V134.158C150.164 136.108 151.352 137.181 153.521 137.181C154.121 137.181 154.767 137.054 155.471 136.8V139.708H157.317V131.632H155.471ZM161.182 138.208V136.339H164.932V134.885H161.182V133.131H165.428V131.632H159.325V139.708H165.578V138.208H161.182ZM170.885 139.846C172.292 139.846 173.458 139.339 174.219 138.404L173.019 137.296C172.477 137.931 171.796 138.254 170.989 138.254C169.477 138.254 168.404 137.193 168.404 135.67C168.404 134.147 169.477 133.085 170.989 133.085C171.796 133.085 172.477 133.408 173.019 134.031L174.219 132.924C173.458 132.001 172.292 131.493 170.896 131.493C168.381 131.493 166.512 133.235 166.512 135.67C166.512 138.104 168.381 139.846 170.885 139.846ZM180.669 139.708H182.791L180.068 135.531L182.711 131.632H180.738L178.615 134.897H177.276V131.632H175.419V139.708H177.276V136.454H178.569L180.669 139.708ZM189.691 139.708H191.652L188.041 131.632H186.195L182.595 139.708H184.51L185.226 137.977H188.975L189.691 139.708ZM185.826 136.558L187.106 133.466L188.387 136.558H185.826ZM195.275 131.632C193.14 131.632 191.79 132.762 191.79 134.643C191.79 135.912 192.402 136.835 193.486 137.273L191.802 139.708H193.775L195.206 137.562H196.913V139.708H198.759V131.632H195.275ZM195.321 133.155H196.913V136.085H195.275C194.225 136.085 193.682 135.554 193.682 134.62C193.682 133.651 194.259 133.155 195.321 133.155ZM104.903 153.231H108.734C110.81 153.231 111.998 152.296 111.998 150.681C111.998 149.135 110.948 148.305 108.999 148.305H106.761V146.643H111.422V145.155H104.903V153.231ZM106.761 151.847V149.677H108.629C109.61 149.677 110.106 150.024 110.106 150.739C110.106 151.466 109.587 151.847 108.629 151.847H106.761ZM117.271 153.369C119.809 153.369 121.69 151.604 121.69 149.193C121.69 146.782 119.809 145.016 117.271 145.016C114.721 145.016 112.852 146.793 112.852 149.193C112.852 151.593 114.721 153.369 117.271 153.369ZM117.271 151.777C115.829 151.777 114.744 150.727 114.744 149.193C114.744 147.658 115.829 146.609 117.271 146.609C118.713 146.609 119.798 147.658 119.798 149.193C119.798 150.727 118.713 151.777 117.271 151.777ZM123.895 145.155L123.78 148.431C123.699 150.497 123.457 151.697 122.511 151.697C122.395 151.697 122.292 151.685 122.176 151.65L122.061 153.231C122.407 153.312 122.707 153.358 122.984 153.358C124.878 153.358 125.328 151.535 125.432 148.362L125.489 146.678H128.254V153.231H130.1V145.155H123.895ZM136.031 147.809H133.977V145.155H132.119V153.231H135.765C137.842 153.231 139.088 152.273 139.088 150.416C139.088 148.674 137.98 147.809 136.031 147.809ZM135.661 151.847H133.977V149.193H135.661C136.63 149.193 137.207 149.562 137.207 150.451C137.207 151.362 136.619 151.847 135.661 151.847ZM145.975 145.155V148.339H142.307V145.155H140.438V153.231H142.307V149.92H145.975V153.231H147.845V145.155H145.975ZM149.864 153.231H151.629L155.482 147.982V153.231H157.328V145.155H155.575L151.721 150.416V145.155H149.864V153.231ZM166.65 151.708V145.155H164.793V151.708H161.193V145.155H159.336V153.231H166.085V154.939H167.804V151.708H166.65ZM175.292 153.231H177.253L173.642 145.155H171.796L168.197 153.231H170.112L170.827 151.5H174.577L175.292 153.231ZM171.427 150.081L172.708 146.989L173.988 150.081H171.427ZM191.975 148.87C193.244 148.87 194.155 148.074 194.155 146.966C194.155 145.859 193.244 145.063 191.975 145.063C190.706 145.063 189.794 145.859 189.794 146.966C189.794 148.074 190.706 148.87 191.975 148.87ZM187.106 150.058L183.091 145.155H181.545V153.231H183.391V148.328L187.418 153.231H188.952V145.155H187.106V150.058ZM191.975 146.02C192.54 146.02 192.932 146.378 192.932 146.966C192.932 147.543 192.54 147.912 191.975 147.912C191.41 147.912 191.006 147.543 191.006 146.966C191.006 146.378 191.41 146.02 191.975 146.02ZM190.025 150.727H193.925V149.631H190.025V150.727ZM198.84 148.443L200.662 146.366V145.155H195.009V146.655H198.447L196.786 148.535V149.77H197.64C198.701 149.77 199.151 150.151 199.151 150.762C199.151 151.42 198.574 151.8 197.64 151.8C196.797 151.8 195.944 151.535 195.332 151.074L194.605 152.504C195.39 153.058 196.555 153.369 197.686 153.369C199.982 153.369 201.032 152.124 201.032 150.762C201.032 149.574 200.293 148.674 198.84 148.443Z" fill="#373737"/>
<path fill-rule="evenodd" clip-rule="evenodd" d="M100.354 53.6682H153.388V100.874H100.363L100.282 100.805L74.0938 78.5479L100.354 53.6682Z" fill="#00A6A9"/>
<path fill-rule="evenodd" clip-rule="evenodd" d="M102.097 86.1649C100.393 86.1649 98.8308 85.7655 97.411 84.967C95.9911 84.1682 94.8637 83.0721 94.0298 81.6788C93.1956 80.2856 92.7783 78.7458 92.7783 77.0595C92.7783 75.3734 93.1956 73.8337 94.0298 72.4402C94.8637 71.0469 95.9911 69.9508 97.411 69.1523C98.8308 68.3534 100.393 67.954 102.097 67.954C103.801 67.954 105.367 68.3534 106.796 69.1523C108.225 69.9508 109.361 71.0469 110.204 72.4402C111.047 73.8337 111.469 75.3734 111.469 77.0595C111.469 78.7458 111.047 80.2856 110.204 81.6788C109.361 83.0721 108.225 84.1682 106.796 84.967C105.367 85.7655 103.801 86.1649 102.097 86.1649ZM102.123 82.8371C103.188 82.8371 104.151 82.593 105.012 82.1049C105.873 81.6168 106.547 80.9333 107.035 80.0549C107.524 79.1761 107.768 78.1778 107.768 77.0595C107.768 75.9591 107.524 74.9695 107.035 74.0911C106.547 73.2123 105.873 72.5246 105.012 72.0274C104.151 71.5305 103.188 71.2822 102.123 71.2822C101.041 71.2822 100.073 71.5263 99.2214 72.0141C98.3694 72.5022 97.6992 73.1857 97.2111 74.0644C96.7233 74.9429 96.4792 75.9412 96.4792 77.0595C96.4792 78.1778 96.7233 79.1761 97.2111 80.0549C97.6992 80.9333 98.3694 81.6168 99.2214 82.1049C100.073 82.593 101.041 82.8371 102.123 82.8371ZM125.632 85.8455L118.098 76.6867V85.8455H114.504V68.2735H118.098V76.4206L124.807 68.2735H129.094L122.358 76.5538L129.972 85.8455H125.632ZM132.342 68.2735H144.057V71.5217H135.936V75.1691H139.637C140.79 75.1691 141.816 75.3868 142.712 75.8216C143.608 76.2564 144.305 76.8687 144.802 77.6585C145.299 78.4485 145.548 79.3757 145.548 80.4407C145.548 81.5056 145.299 82.4465 144.802 83.2628C144.305 84.0795 143.608 84.7139 142.712 85.1666C141.816 85.6193 140.79 85.8455 139.637 85.8455H132.342V68.2735ZM139.451 82.7571C140.249 82.7571 140.87 82.5485 141.314 82.1315C141.758 81.7143 141.98 81.1507 141.98 80.4407C141.98 79.7309 141.758 79.1673 141.314 78.7501C140.87 78.3331 140.249 78.1245 139.451 78.1245H135.936V82.7571H139.451Z" fill="white"/>
</svg>
